<svg xmlns="http://www.w3.org/2000/svg" viewBox="0 0 200 240" width="120" height="144" role="img" aria-label="Dished shield shape">
  <style>
    .shape { fill: #24242e; stroke: #b8912e; stroke-width: 3; stroke-linejoin: round; }
    @media (prefers-color-scheme: dark) {
      .shape { fill: #d9d9e0; stroke: #e8c84a; }
    }
  </style>
  <path class="shape" d="M 186.68 44.60 c -11.90 -9.21 -24.11 -18.00 -36.10 -27.09 -3.09 -2.34 -5.30 -2.64 -8.78 -0.12 -23.79 17.22 -59.14 17.13 -83.47 -0.20 -3.44 -2.45 -5.63 -2.32 -8.75 0.04 -9.33 7.03 -18.39 14.54 -28.38 20.49 C 11.78 43.33 7.70 50.22 10.00 58.00 c 2.16 41.39 10.92 77.90 31.31 111.08 12.97 21.11 29.21 39.13 49.70 53.29 5.62 3.88 10.12 4.66 16.21 0.44 20.84 -14.44 37.82 -32.40 50.99 -53.92 22.06 -36.05 30.49 -75.91 31.78 -117.60 0.07 -2.23 -1.51 -5.28 -3.32 -6.67 Z" />
</svg>
